<?xml version="1.0" encoding="UTF-8" standalone="no"?>
<svg width="34px" height="32px" viewBox="0 0 34 32" version="1.1" xmlns="http://www.w3.org/2000/svg" xmlns:xlink="http://www.w3.org/1999/xlink" xmlns:sketch="http://www.bohemiancoding.com/sketch/ns">
    <!-- Generator: Sketch 3.4.2 (15857) - http://www.bohemiancoding.com/sketch -->
    <title>caller</title>
    <desc>Created with Sketch.</desc>
    <defs></defs>
    <g id="Page-1" stroke="none" stroke-width="1" fill="none" fill-rule="evenodd" sketch:type="MSPage">
        <g id="caller_singin" sketch:type="MSArtboardGroup" transform="translate(-137.000000, -25.000000)" fill="#A4AEBD">
            <g id="caller" sketch:type="MSLayerGroup" transform="translate(137.000000, 24.869237)">
                <path d="M16.7329414,0.668927067 C10.5023765,0.668927067 5.36576773,5.41305056 4.74797213,11.4825905 C4.13604271,11.6814468 3.65002546,12.1674637 3.45116917,12.7793934 C2.49625327,12.9705693 1.66804877,13.6240288 1.08764119,14.4945199 C0.394816103,15.5336142 0,16.8987806 0,18.405845 C0,19.9122983 0.39486246,21.277954 1.08764119,22.3171701 C1.66800988,23.1877636 2.49618547,23.8411455 3.45116917,24.0322966 C3.712929,24.8377956 4.4668039,25.4336804 5.35454126,25.4336804 C6.45561084,25.4336804 7.36249423,24.5267971 7.36249423,23.4257274 L7.36249423,13.3859626 C7.36249423,12.5532785 6.83659395,11.8476584 6.10752363,11.545339 C6.69439808,6.18091219 11.2100601,2.00756238 16.7329414,2.00756238 C22.2558228,2.00756238 26.7714848,6.18091219 27.3583593,11.545339 C26.6292889,11.8476584 26.1033886,12.5532785 26.1033886,13.3859626 L26.1033886,23.4257274 C26.1033886,24.2813503 26.660281,25.0005984 27.4211078,25.2872672 C27.3291509,26.5662335 26.8949351,27.5285664 26.2079695,28.2155319 C25.4310758,28.9924257 24.296231,29.4495863 22.7568004,29.4495863 L20.6233503,29.4495863 C20.3434377,28.6760178 19.605693,28.110951 18.7408944,28.110951 L15.3943061,28.110951 C14.2932364,28.110951 13.3863532,29.0178343 13.3863532,30.118904 C13.3863532,31.2199737 14.2932364,32.126857 15.3943061,32.126857 L18.7408944,32.126857 C19.605693,32.126857 20.3434377,31.5617902 20.6233503,30.7882217 L22.7568004,30.7882217 C24.563958,30.7882217 26.1063838,30.2414059 27.1701137,29.177676 C28.1257842,28.2220056 28.6602089,26.8814547 28.7597431,25.3081833 C29.3512178,25.1007451 29.8205922,24.6296565 30.0147137,24.0322966 C30.9697979,23.8411521 31.7979359,23.1877897 32.3782417,22.3171701 C33.0709453,21.2779225 33.4658829,19.9122448 33.4658829,18.405845 C33.4658829,16.8988341 33.0709922,15.5336456 32.3782417,14.4945199 C31.7978964,13.624002 30.9697303,12.9705633 30.0147137,12.7793934 C29.8158574,12.1674637 29.3298404,11.6814468 28.7179107,11.4825905 C28.1001152,5.41305056 22.9635064,0.668927067 16.7329414,0.668927067 L16.7329414,0.668927067 Z M5.35454126,12.7166449 C5.73132507,12.7166449 6.02385892,13.0091789 6.02385892,13.3859626 L6.02385892,23.4257274 C6.02385892,23.8025111 5.73132507,24.0950451 5.35454126,24.0950451 C4.97775745,24.0950451 4.6852236,23.8025111 4.6852236,23.4257274 L4.6852236,13.3859626 C4.6852236,13.0091789 4.97775745,12.7166449 5.35454126,12.7166449 L5.35454126,12.7166449 Z M28.1113416,12.7166449 C28.4881253,12.7166449 28.7806593,13.0091789 28.7806593,13.3859626 L28.7806593,23.4257274 C28.7806593,23.8025111 28.4881253,24.0950451 28.1113416,24.0950451 C27.7345579,24.0950451 27.442024,23.8025111 27.442024,23.4257274 L27.442024,13.3859626 C27.442024,13.0091789 27.7345579,12.7166449 28.1113416,12.7166449 L28.1113416,12.7166449 Z M3.34658829,14.2016935 L3.34658829,22.6099965 C2.92990418,22.4331749 2.53647658,22.0955443 2.19619856,21.5851039 C1.67767965,20.8072898 1.33863532,19.6710361 1.33863532,18.405845 C1.33863532,17.1399264 1.67772603,16.0041873 2.19619856,15.2265861 C2.5364462,14.7162856 2.92989621,14.3785613 3.34658829,14.2016935 L3.34658829,14.2016935 Z M30.1192946,14.2016935 C30.5360011,14.378568 30.9294976,14.7163057 31.2696843,15.2265861 C31.7880642,16.0041559 32.1272476,17.1398728 32.1272476,18.405845 C32.1272476,19.6710896 31.788111,20.8073213 31.2696843,21.5851039 C30.9294668,22.0955235 30.535993,22.4331682 30.1192946,22.6099965 L30.1192946,14.2016935 L30.1192946,14.2016935 Z M15.3943061,29.4495863 L18.7408944,29.4495863 C19.1176781,29.4495863 19.4102121,29.7421203 19.4102121,30.118904 C19.4102121,30.4956877 19.1176781,30.7882217 18.7408944,30.7882217 L15.3943061,30.7882217 C15.0175225,30.7882217 14.7249885,30.4956877 14.7249885,30.118904 C14.7249885,29.7421203 15.0175225,29.4495863 15.3943061,29.4495863 L15.3943061,29.4495863 Z" id="Shape" sketch:type="MSShapeGroup"></path>
            </g>
        </g>
    </g>
</svg>